<svg width="56" height="53" viewBox="0 0 56 53" fill="none" xmlns="http://www.w3.org/2000/svg">
<path d="M15.5996 34.3002H43.4996C45.2046 34.3002 46.5996 35.6952 46.5996 37.4002C46.5996 39.1052 45.2046 40.5002 43.4996 40.5002H12.4996C10.7946 40.5002 9.39961 39.1052 9.39961 37.4002V6.4002H3.19961C1.49461 6.4002 0.0996094 5.0052 0.0996094 3.3002C0.0996094 1.5952 1.49461 0.200195 3.19961 0.200195H12.4996C14.2046 0.200195 15.5996 1.5952 15.5996 3.3002V9.50019H55.8996L43.4996 31.2002H15.5996V34.3002ZM14.0496 43.6002C16.6226 43.6002 18.6996 45.6772 18.6996 48.2502C18.6996 50.8232 16.6226 52.9002 14.0496 52.9002C11.4766 52.9002 9.39961 50.8232 9.39961 48.2502C9.39961 45.6772 11.4766 43.6002 14.0496 43.6002ZM41.9496 43.6002C44.5226 43.6002 46.5996 45.6772 46.5996 48.2502C46.5996 50.8232 44.5226 52.9002 41.9496 52.9002C39.3766 52.9002 37.2996 50.8232 37.2996 48.2502C37.2996 45.6772 39.3766 43.6002 41.9496 43.6002Z" fill="white"/>
</svg>
